<svg xmlns="http://www.w3.org/2000/svg" xmlns:xlink="http://www.w3.org/1999/xlink" width="2000" zoomAndPan="magnify" viewBox="0 0 1500 449.999984" height="600" preserveAspectRatio="xMidYMid meet" version="1.0"><defs><g/><clipPath id="f50c2a315e"><path d="M 0.160156 0.238281 L 1402.71875 0.238281 L 1402.71875 426 L 0.160156 426 Z M 0.160156 0.238281 " clip-rule="nonzero"/></clipPath><clipPath id="ce9ccb1192"><rect x="0" width="1403" y="0" height="426"/></clipPath><clipPath id="b9b4ee55ea"><rect x="0" width="261" y="0" height="417"/></clipPath><clipPath id="ff0b02d813"><rect x="0" width="1403" y="0" height="426"/></clipPath></defs><g transform="matrix(1, 0, 0, 1, 44, 24)"><g clip-path="url(#ff0b02d813)"><g clip-path="url(#f50c2a315e)"><g transform="matrix(1, 0, 0, 1, -0.000000000000007105, -0.000000000000007105)"><g clip-path="url(#ce9ccb1192)"><g fill="#000000" fill-opacity="1"><g transform="translate(1.508246, 324.802202)"><g><path d="M 152.8125 8.59375 C 128.8125 8.59375 108.253906 6.75 91.140625 3.0625 C 74.023438 -0.613281 59.875 -5.65625 48.6875 -12.0625 C 37.5 -18.476562 28.664062 -25.910156 22.1875 -34.359375 C 15.71875 -42.816406 11.148438 -51.851562 8.484375 -61.46875 C 5.828125 -71.082031 4.5 -80.867188 4.5 -90.828125 L 4.5 -92.0625 L 138.484375 -92.0625 L 138.484375 -89.390625 C 138.628906 -88.441406 139.039062 -87.21875 139.71875 -85.71875 C 140.394531 -84.21875 142.03125 -83.46875 144.625 -83.46875 C 146.675781 -83.46875 148.175781 -84.144531 149.125 -85.5 C 150.082031 -86.863281 150.5625 -88.160156 150.5625 -89.390625 C 150.5625 -89.941406 150.1875 -90.828125 149.4375 -92.046875 C 148.6875 -93.273438 147.359375 -94.03125 145.453125 -94.3125 C 141.628906 -94.988281 136.273438 -95.664062 129.390625 -96.34375 C 122.503906 -97.03125 114.726562 -97.988281 106.0625 -99.21875 C 97.40625 -100.445312 88.4375 -102.21875 79.15625 -104.53125 C 69.882812 -106.851562 60.882812 -110.023438 52.15625 -114.046875 C 43.4375 -118.066406 35.5625 -123.25 28.53125 -129.59375 C 21.507812 -135.9375 15.914062 -143.640625 11.75 -152.703125 C 7.59375 -161.773438 5.515625 -172.585938 5.515625 -185.140625 L 5.515625 -185.953125 C 6.203125 -210.492188 11.894531 -230.128906 22.59375 -244.859375 C 33.300781 -259.585938 48.539062 -270.191406 68.3125 -276.671875 C 88.09375 -283.148438 112.03125 -286.390625 140.125 -286.390625 C 164.675781 -286.390625 185.847656 -283.96875 203.640625 -279.125 C 221.441406 -274.289062 236.066406 -267.441406 247.515625 -258.578125 C 258.972656 -249.710938 267.5 -239.242188 273.09375 -227.171875 C 278.6875 -215.097656 281.550781 -201.765625 281.6875 -187.171875 L 281.6875 -186.359375 L 153.015625 -186.359375 L 153.015625 -188.8125 C 153.015625 -190.175781 152.503906 -191.4375 151.484375 -192.59375 C 150.460938 -193.757812 148.992188 -194.34375 147.078125 -194.34375 C 145.304688 -194.34375 143.84375 -193.726562 142.6875 -192.5 C 141.53125 -191.269531 140.953125 -189.90625 140.953125 -188.40625 C 140.953125 -187.863281 141.597656 -186.804688 142.890625 -185.234375 C 144.179688 -183.671875 145.71875 -182.75 147.5 -182.46875 C 151.3125 -181.789062 156.660156 -181.210938 163.546875 -180.734375 C 170.429688 -180.253906 178.203125 -179.503906 186.859375 -178.484375 C 195.523438 -177.460938 204.492188 -175.828125 213.765625 -173.578125 C 223.046875 -171.328125 232.082031 -168.085938 240.875 -163.859375 C 249.675781 -159.628906 257.585938 -154.035156 264.609375 -147.078125 C 271.628906 -140.128906 277.21875 -131.472656 281.375 -121.109375 C 285.539062 -110.742188 287.625 -98.332031 287.625 -83.875 L 287.625 -82.84375 C 287.070312 -67.300781 283.351562 -53.800781 276.46875 -42.34375 C 269.582031 -30.882812 260.101562 -21.367188 248.03125 -13.796875 C 235.96875 -6.234375 221.851562 -0.613281 205.6875 3.0625 C 189.53125 6.75 171.90625 8.59375 152.8125 8.59375 Z M 152.8125 8.59375 "/></g></g></g><g fill="#000000" fill-opacity="1"><g transform="translate(293.617145, 324.802202)"><g><path d="M 5.3125 0 L 5.3125 -278.21875 L 234.640625 -278.21875 L 234.640625 -181.453125 L 157.921875 -181.453125 L 157.921875 -171.625 L 218.890625 -171.625 L 218.890625 -103.515625 L 157.921875 -103.515625 L 157.921875 -93.890625 L 236.484375 -93.890625 L 236.484375 0 Z M 5.3125 0 "/></g></g></g><g fill="#000000" fill-opacity="1"><g transform="translate(533.972854, 324.802202)"><g><path d="M 80.59375 0 L -1.84375 -278.21875 L 148.71875 -278.21875 L 156.078125 -127.4375 L 160.796875 -127.4375 L 168.5625 -278.21875 L 318.71875 -278.21875 L 236.28125 0 Z M 80.59375 0 "/></g></g></g><g fill="#000000" fill-opacity="1"><g transform="translate(850.833275, 324.802202)"><g><path d="M 5.3125 0 L 5.3125 -278.21875 L 234.640625 -278.21875 L 234.640625 -181.453125 L 157.921875 -181.453125 L 157.921875 -171.625 L 218.890625 -171.625 L 218.890625 -103.515625 L 157.921875 -103.515625 L 157.921875 -93.890625 L 236.484375 -93.890625 L 236.484375 0 Z M 5.3125 0 "/></g></g></g><g fill="#000000" fill-opacity="1"><g transform="translate(1091.188931, 324.802202)"><g><path d="M 5.3125 0 L 5.3125 -278.21875 L 163.453125 -278.21875 L 170 -251.40625 L 188 -178.171875 L 194.75 -178.796875 L 177.5625 -278.21875 L 305.828125 -278.21875 L 305.828125 0 L 147.5 0 L 140.953125 -25.15625 L 118.234375 -127.65625 L 111.484375 -127.65625 L 131.953125 0 Z M 5.3125 0 "/></g></g></g></g></g></g><g transform="matrix(1, 0, 0, 1, 285, 9)"><g clip-path="url(#b9b4ee55ea)"><g fill="#ffffff" fill-opacity="1"><g transform="translate(2.099722, 335.393341)"><g><path d="M 215.5625 -306.609375 L 125.25 -201.4375 C 130.445312 -204.40625 137.753906 -205.890625 147.171875 -205.890625 C 158.078125 -205.890625 169.101562 -203.597656 180.25 -199.015625 C 191.40625 -194.429688 201.875 -187.863281 211.65625 -179.3125 C 221.445312 -170.769531 229.4375 -159.4375 235.625 -145.3125 C 241.820312 -131.195312 244.921875 -115.585938 244.921875 -98.484375 C 244.921875 -81.140625 241.632812 -65.59375 235.0625 -51.84375 C 228.5 -38.09375 219.703125 -27.191406 208.671875 -19.140625 C 197.648438 -11.085938 185.570312 -4.953125 172.4375 -0.734375 C 159.3125 3.472656 145.5625 5.578125 131.1875 5.578125 C 96.75 5.578125 67.757812 -4.457031 44.21875 -24.53125 C 20.6875 -44.601562 8.921875 -69.253906 8.921875 -98.484375 C 8.921875 -123.265625 12.390625 -143.644531 19.328125 -159.625 C 26.265625 -175.601562 38.898438 -195.984375 57.234375 -220.765625 L 129.34375 -306.609375 Z M 81.390625 -98.484375 C 81.390625 -85.109375 85.722656 -74.019531 94.390625 -65.21875 C 103.066406 -56.425781 114.21875 -52.03125 127.84375 -52.03125 C 141.476562 -52.03125 152.753906 -56.425781 161.671875 -65.21875 C 170.585938 -74.019531 175.046875 -85.109375 175.046875 -98.484375 C 175.046875 -112.117188 170.523438 -123.457031 161.484375 -132.5 C 152.441406 -141.539062 141.226562 -146.0625 127.84375 -146.0625 C 114.96875 -146.0625 104.003906 -141.539062 94.953125 -132.5 C 85.910156 -123.457031 81.390625 -112.117188 81.390625 -98.484375 Z M 81.390625 -98.484375 "/></g></g></g></g></g></g></g></svg>