<svg xmlns="http://www.w3.org/2000/svg" xmlns:xlink="http://www.w3.org/1999/xlink" width="570" zoomAndPan="magnify" viewBox="0 0 427.5 184.499994" height="246" preserveAspectRatio="xMidYMid meet" version="1.0"><defs><g/><clipPath id="53d3947002"><rect x="0" width="339" y="0" height="109"/></clipPath><clipPath id="8d2e4364fa"><rect x="0" width="63" y="0" height="113"/></clipPath></defs><g transform="matrix(1, 0, 0, 1, 44, 37)"><g clip-path="url(#53d3947002)"><g fill="#000000" fill-opacity="1"><g transform="translate(0.767543, 78.479484)"><g><path d="M 36.765625 2.0625 C 30.992188 2.0625 26.046875 1.617188 21.921875 0.734375 C 17.804688 -0.148438 14.398438 -1.363281 11.703125 -2.90625 C 9.015625 -4.445312 6.890625 -6.234375 5.328125 -8.265625 C 3.773438 -10.304688 2.675781 -12.484375 2.03125 -14.796875 C 1.394531 -17.109375 1.078125 -19.460938 1.078125 -21.859375 L 1.078125 -22.15625 L 33.328125 -22.15625 L 33.328125 -21.515625 C 33.359375 -21.285156 33.453125 -20.988281 33.609375 -20.625 C 33.773438 -20.257812 34.171875 -20.078125 34.796875 -20.078125 C 35.296875 -20.078125 35.660156 -20.238281 35.890625 -20.5625 C 36.117188 -20.894531 36.234375 -21.210938 36.234375 -21.515625 C 36.234375 -21.640625 36.140625 -21.847656 35.953125 -22.140625 C 35.773438 -22.441406 35.457031 -22.625 35 -22.6875 C 34.082031 -22.851562 32.796875 -23.019531 31.140625 -23.1875 C 29.484375 -23.351562 27.609375 -23.582031 25.515625 -23.875 C 23.429688 -24.164062 21.273438 -24.585938 19.046875 -25.140625 C 16.816406 -25.703125 14.648438 -26.46875 12.546875 -27.4375 C 10.453125 -28.40625 8.554688 -29.648438 6.859375 -31.171875 C 5.171875 -32.703125 3.828125 -34.554688 2.828125 -36.734375 C 1.828125 -38.921875 1.328125 -41.523438 1.328125 -44.546875 L 1.328125 -44.75 C 1.492188 -50.65625 2.863281 -55.378906 5.4375 -58.921875 C 8.007812 -62.460938 11.675781 -65.015625 16.4375 -66.578125 C 21.195312 -68.140625 26.957031 -68.921875 33.71875 -68.921875 C 39.625 -68.921875 44.71875 -68.335938 49 -67.171875 C 53.28125 -66.003906 56.800781 -64.351562 59.5625 -62.21875 C 62.320312 -60.082031 64.375 -57.5625 65.71875 -54.65625 C 67.0625 -51.757812 67.75 -48.554688 67.78125 -45.046875 L 67.78125 -44.84375 L 36.8125 -44.84375 L 36.8125 -45.4375 C 36.8125 -45.757812 36.6875 -46.0625 36.4375 -46.34375 C 36.195312 -46.625 35.847656 -46.765625 35.390625 -46.765625 C 34.960938 -46.765625 34.609375 -46.613281 34.328125 -46.3125 C 34.054688 -46.019531 33.921875 -45.695312 33.921875 -45.34375 C 33.921875 -45.207031 34.070312 -44.945312 34.375 -44.5625 C 34.6875 -44.1875 35.054688 -43.96875 35.484375 -43.90625 C 36.410156 -43.738281 37.703125 -43.597656 39.359375 -43.484375 C 41.015625 -43.367188 42.882812 -43.1875 44.96875 -42.9375 C 47.050781 -42.695312 49.207031 -42.304688 51.4375 -41.765625 C 53.664062 -41.222656 55.835938 -40.441406 57.953125 -39.421875 C 60.078125 -38.410156 61.984375 -37.066406 63.671875 -35.390625 C 65.359375 -33.710938 66.703125 -31.628906 67.703125 -29.140625 C 68.703125 -26.648438 69.203125 -23.664062 69.203125 -20.1875 L 69.203125 -19.9375 C 69.078125 -16.195312 68.1875 -12.945312 66.53125 -10.1875 C 64.875 -7.425781 62.59375 -5.132812 59.6875 -3.3125 C 56.78125 -1.5 53.378906 -0.148438 49.484375 0.734375 C 45.597656 1.617188 41.359375 2.0625 36.765625 2.0625 Z M 36.765625 2.0625 "/></g></g></g><g fill="#000000" fill-opacity="1"><g transform="translate(71.058615, 78.479484)"><g><path d="M 1.28125 0 L 1.28125 -66.953125 L 56.453125 -66.953125 L 56.453125 -43.65625 L 38 -43.65625 L 38 -41.296875 L 52.671875 -41.296875 L 52.671875 -24.90625 L 38 -24.90625 L 38 -22.59375 L 56.90625 -22.59375 L 56.90625 0 Z M 1.28125 0 "/></g></g></g><g fill="#000000" fill-opacity="1"><g transform="translate(128.896155, 78.479484)"><g><path d="M 19.390625 0 L -0.4375 -66.953125 L 35.78125 -66.953125 L 37.5625 -30.671875 L 38.6875 -30.671875 L 40.5625 -66.953125 L 76.6875 -66.953125 L 56.859375 0 Z M 19.390625 0 "/></g></g></g><g fill="#000000" fill-opacity="1"><g transform="translate(205.143262, 78.479484)"><g><path d="M 1.28125 0 L 1.28125 -66.953125 L 56.453125 -66.953125 L 56.453125 -43.65625 L 38 -43.65625 L 38 -41.296875 L 52.671875 -41.296875 L 52.671875 -24.90625 L 38 -24.90625 L 38 -22.59375 L 56.90625 -22.59375 L 56.90625 0 Z M 1.28125 0 "/></g></g></g><g fill="#000000" fill-opacity="1"><g transform="translate(262.98079, 78.479484)"><g><path d="M 1.28125 0 L 1.28125 -66.953125 L 39.328125 -66.953125 L 40.90625 -60.5 L 45.234375 -42.875 L 46.859375 -43.015625 L 42.734375 -66.953125 L 73.59375 -66.953125 L 73.59375 0 L 35.484375 0 L 33.921875 -6.046875 L 28.453125 -30.71875 L 26.828125 -30.71875 L 31.75 0 Z M 1.28125 0 "/></g></g></g></g></g><g transform="matrix(1, 0, 0, 1, 114, 39)"><g clip-path="url(#8d2e4364fa)"><g fill="#ffffff" fill-opacity="1"><g transform="translate(0.643692, 80.905412)"><g><path d="M 51.875 -73.78125 L 30.140625 -48.46875 C 31.390625 -49.1875 33.148438 -49.546875 35.421875 -49.546875 C 38.046875 -49.546875 40.695312 -48.992188 43.375 -47.890625 C 46.0625 -46.785156 48.582031 -45.203125 50.9375 -43.140625 C 53.289062 -41.085938 55.210938 -38.363281 56.703125 -34.96875 C 58.191406 -31.570312 58.9375 -27.816406 58.9375 -23.703125 C 58.9375 -19.523438 58.144531 -15.78125 56.5625 -12.46875 C 54.988281 -9.164062 52.875 -6.546875 50.21875 -4.609375 C 47.5625 -2.671875 44.65625 -1.191406 41.5 -0.171875 C 38.34375 0.835938 35.035156 1.34375 31.578125 1.34375 C 23.285156 1.34375 16.304688 -1.066406 10.640625 -5.890625 C 4.972656 -10.722656 2.140625 -16.660156 2.140625 -23.703125 C 2.140625 -29.660156 2.972656 -34.5625 4.640625 -38.40625 C 6.316406 -42.257812 9.359375 -47.164062 13.765625 -53.125 L 31.125 -73.78125 Z M 19.59375 -23.703125 C 19.59375 -20.484375 20.632812 -17.8125 22.71875 -15.6875 C 24.800781 -13.570312 27.484375 -12.515625 30.765625 -12.515625 C 34.046875 -12.515625 36.757812 -13.570312 38.90625 -15.6875 C 41.050781 -17.8125 42.125 -20.484375 42.125 -23.703125 C 42.125 -26.984375 41.035156 -29.710938 38.859375 -31.890625 C 36.679688 -34.066406 33.984375 -35.15625 30.765625 -35.15625 C 27.660156 -35.15625 25.019531 -34.066406 22.84375 -31.890625 C 20.675781 -29.710938 19.59375 -26.984375 19.59375 -23.703125 Z M 19.59375 -23.703125 "/></g></g></g></g></g></svg>